<mxfile host="65bd71144e">
    <diagram id="C5RBs43oDa-KdzZeNtuy" name="Page-1">
        <mxGraphModel dx="3075" dy="1355" grid="1" gridSize="10" guides="1" tooltips="1" connect="1" arrows="1" fold="1" page="0" pageScale="1" pageWidth="1169" pageHeight="827" background="#1A1A1A" math="0" shadow="0">
            <root>
                <mxCell id="WIyWlLk6GJQsqaUBKTNV-0"/>
                <mxCell id="WIyWlLk6GJQsqaUBKTNV-1" parent="WIyWlLk6GJQsqaUBKTNV-0"/>
                <mxCell id="2lRlpsGCmLpTugyDsQbw-4" value="Yes" style="edgeStyle=orthogonalEdgeStyle;rounded=0;orthogonalLoop=1;jettySize=auto;html=1;" parent="WIyWlLk6GJQsqaUBKTNV-1" source="2lRlpsGCmLpTugyDsQbw-0" target="2lRlpsGCmLpTugyDsQbw-3" edge="1">
                    <mxGeometry relative="1" as="geometry"/>
                </mxCell>
                <mxCell id="2lRlpsGCmLpTugyDsQbw-6" value="No" style="edgeStyle=orthogonalEdgeStyle;rounded=0;orthogonalLoop=1;jettySize=auto;html=1;entryX=0.5;entryY=0;entryDx=0;entryDy=0;verticalAlign=middle;" parent="WIyWlLk6GJQsqaUBKTNV-1" source="2lRlpsGCmLpTugyDsQbw-0" target="12" edge="1">
                    <mxGeometry relative="1" as="geometry"/>
                </mxCell>
                <mxCell id="2lRlpsGCmLpTugyDsQbw-0" value="Yellow Flag&lt;div&gt;or&lt;/div&gt;&lt;div&gt;In Pitlane&lt;/div&gt;&lt;div&gt;or&lt;/div&gt;&lt;div&gt;Finished&lt;/div&gt;" style="rhombus;whiteSpace=wrap;html=1;" parent="WIyWlLk6GJQsqaUBKTNV-1" vertex="1">
                    <mxGeometry x="-710" y="220" width="160" height="120" as="geometry"/>
                </mxCell>
                <mxCell id="2lRlpsGCmLpTugyDsQbw-1" value="AI Race Battery Control&lt;div style=&quot;font-size: 14px;&quot;&gt;Default&lt;/div&gt;" style="text;html=1;align=center;verticalAlign=middle;whiteSpace=wrap;rounded=1;fontStyle=1;fontSize=14;horizontal=1;fillColor=default;glass=0;shadow=0;" parent="WIyWlLk6GJQsqaUBKTNV-1" vertex="1">
                    <mxGeometry x="-730" y="-20" width="200" height="80" as="geometry"/>
                </mxCell>
                <mxCell id="2lRlpsGCmLpTugyDsQbw-3" value="Set&lt;div&gt;Min&lt;/div&gt;" style="whiteSpace=wrap;html=1;" parent="WIyWlLk6GJQsqaUBKTNV-1" vertex="1">
                    <mxGeometry x="-480" y="260" width="80" height="40" as="geometry"/>
                </mxCell>
                <mxCell id="18" value="No" style="edgeStyle=none;html=1;exitX=0;exitY=0.5;exitDx=0;exitDy=0;entryX=1;entryY=0.5;entryDx=0;entryDy=0;fontSize=11;" edge="1" parent="WIyWlLk6GJQsqaUBKTNV-1" source="2lRlpsGCmLpTugyDsQbw-5" target="2lRlpsGCmLpTugyDsQbw-19">
                    <mxGeometry relative="1" as="geometry">
                        <mxPoint x="-770" y="680" as="targetPoint"/>
                    </mxGeometry>
                </mxCell>
                <mxCell id="20" value="Yes" style="edgeStyle=none;html=1;exitX=1;exitY=0.5;exitDx=0;exitDy=0;entryX=0;entryY=0.5;entryDx=0;entryDy=0;fontSize=11;" edge="1" parent="WIyWlLk6GJQsqaUBKTNV-1" source="2lRlpsGCmLpTugyDsQbw-5" target="2lRlpsGCmLpTugyDsQbw-11">
                    <mxGeometry relative="1" as="geometry"/>
                </mxCell>
                <mxCell id="2lRlpsGCmLpTugyDsQbw-5" value="On Final&lt;div&gt;Lap?&lt;/div&gt;" style="rhombus;whiteSpace=wrap;html=1;" parent="WIyWlLk6GJQsqaUBKTNV-1" vertex="1">
                    <mxGeometry x="-710" y="620" width="160" height="120" as="geometry"/>
                </mxCell>
                <mxCell id="2lRlpsGCmLpTugyDsQbw-14" value="Yes" style="edgeStyle=orthogonalEdgeStyle;rounded=0;orthogonalLoop=1;jettySize=auto;html=1;" parent="WIyWlLk6GJQsqaUBKTNV-1" source="2lRlpsGCmLpTugyDsQbw-11" target="2lRlpsGCmLpTugyDsQbw-13" edge="1">
                    <mxGeometry relative="1" as="geometry">
                        <mxPoint as="offset"/>
                    </mxGeometry>
                </mxCell>
                <mxCell id="2lRlpsGCmLpTugyDsQbw-16" value="No" style="edgeStyle=orthogonalEdgeStyle;rounded=0;orthogonalLoop=1;jettySize=auto;html=1;" parent="WIyWlLk6GJQsqaUBKTNV-1" source="2lRlpsGCmLpTugyDsQbw-11" target="2lRlpsGCmLpTugyDsQbw-15" edge="1">
                    <mxGeometry relative="1" as="geometry"/>
                </mxCell>
                <mxCell id="2lRlpsGCmLpTugyDsQbw-11" value="Battery&lt;div&gt;&amp;lt; 10%&lt;/div&gt;&lt;div&gt;or&lt;/div&gt;&lt;div&gt;Lap Allowance&lt;/div&gt;&lt;div&gt;&amp;lt; 10%&lt;/div&gt;" style="rhombus;whiteSpace=wrap;html=1;" parent="WIyWlLk6GJQsqaUBKTNV-1" vertex="1">
                    <mxGeometry x="-480" y="620" width="160" height="120" as="geometry"/>
                </mxCell>
                <mxCell id="2lRlpsGCmLpTugyDsQbw-13" value="Set&lt;div&gt;Medium&lt;/div&gt;" style="whiteSpace=wrap;html=1;" parent="WIyWlLk6GJQsqaUBKTNV-1" vertex="1">
                    <mxGeometry x="-440" y="820" width="80" height="40" as="geometry"/>
                </mxCell>
                <mxCell id="2lRlpsGCmLpTugyDsQbw-15" value="Set&lt;div&gt;Max&lt;/div&gt;" style="whiteSpace=wrap;html=1;" parent="WIyWlLk6GJQsqaUBKTNV-1" vertex="1">
                    <mxGeometry x="-240" y="660" width="80" height="40" as="geometry"/>
                </mxCell>
                <mxCell id="2lRlpsGCmLpTugyDsQbw-17" value="Yes" style="edgeStyle=orthogonalEdgeStyle;rounded=0;orthogonalLoop=1;jettySize=auto;html=1;exitX=0.5;exitY=1;exitDx=0;exitDy=0;" parent="WIyWlLk6GJQsqaUBKTNV-1" source="2lRlpsGCmLpTugyDsQbw-19" target="2lRlpsGCmLpTugyDsQbw-20" edge="1">
                    <mxGeometry relative="1" as="geometry">
                        <mxPoint x="-870" y="740" as="sourcePoint"/>
                    </mxGeometry>
                </mxCell>
                <mxCell id="2lRlpsGCmLpTugyDsQbw-18" value="No" style="edgeStyle=orthogonalEdgeStyle;rounded=0;orthogonalLoop=1;jettySize=auto;html=1;" parent="WIyWlLk6GJQsqaUBKTNV-1" source="2lRlpsGCmLpTugyDsQbw-19" target="2lRlpsGCmLpTugyDsQbw-23" edge="1">
                    <mxGeometry relative="1" as="geometry"/>
                </mxCell>
                <mxCell id="2lRlpsGCmLpTugyDsQbw-19" value="Battery&lt;div&gt;&amp;lt; 10%&lt;/div&gt;&lt;div&gt;or&lt;/div&gt;&lt;div&gt;Lap Allowance&amp;nbsp;&lt;/div&gt;&lt;div&gt;&amp;lt; 10%&lt;/div&gt;" style="rhombus;whiteSpace=wrap;html=1;" parent="WIyWlLk6GJQsqaUBKTNV-1" vertex="1">
                    <mxGeometry x="-950" y="620" width="160" height="120" as="geometry"/>
                </mxCell>
                <mxCell id="2lRlpsGCmLpTugyDsQbw-20" value="Set&lt;div&gt;Low&lt;/div&gt;" style="whiteSpace=wrap;html=1;" parent="WIyWlLk6GJQsqaUBKTNV-1" vertex="1">
                    <mxGeometry x="-910" y="820" width="80" height="40" as="geometry"/>
                </mxCell>
                <mxCell id="2lRlpsGCmLpTugyDsQbw-21" value="Yes" style="edgeStyle=orthogonalEdgeStyle;rounded=0;orthogonalLoop=1;jettySize=auto;html=1;" parent="WIyWlLk6GJQsqaUBKTNV-1" source="2lRlpsGCmLpTugyDsQbw-23" target="2lRlpsGCmLpTugyDsQbw-24" edge="1">
                    <mxGeometry relative="1" as="geometry"/>
                </mxCell>
                <mxCell id="2lRlpsGCmLpTugyDsQbw-22" value="No" style="edgeStyle=orthogonalEdgeStyle;rounded=0;orthogonalLoop=1;jettySize=auto;html=1;" parent="WIyWlLk6GJQsqaUBKTNV-1" source="2lRlpsGCmLpTugyDsQbw-23" target="2lRlpsGCmLpTugyDsQbw-25" edge="1">
                    <mxGeometry relative="1" as="geometry"/>
                </mxCell>
                <mxCell id="2lRlpsGCmLpTugyDsQbw-23" value="Battery&lt;div&gt;&amp;lt; 50%&lt;/div&gt;&lt;div&gt;or&lt;/div&gt;&lt;div&gt;Lap Allowance&lt;/div&gt;&lt;div&gt;&amp;lt; 20%&lt;/div&gt;" style="rhombus;whiteSpace=wrap;html=1;" parent="WIyWlLk6GJQsqaUBKTNV-1" vertex="1">
                    <mxGeometry x="-1190" y="620" width="160" height="120" as="geometry"/>
                </mxCell>
                <mxCell id="2lRlpsGCmLpTugyDsQbw-24" value="Set&lt;div&gt;Medium&lt;/div&gt;" style="whiteSpace=wrap;html=1;" parent="WIyWlLk6GJQsqaUBKTNV-1" vertex="1">
                    <mxGeometry x="-1150" y="820" width="80" height="40" as="geometry"/>
                </mxCell>
                <mxCell id="2lRlpsGCmLpTugyDsQbw-25" value="Set&lt;div&gt;Max&lt;/div&gt;" style="whiteSpace=wrap;html=1;" parent="WIyWlLk6GJQsqaUBKTNV-1" vertex="1">
                    <mxGeometry x="-1350" y="660" width="80" height="40" as="geometry"/>
                </mxCell>
                <mxCell id="2lRlpsGCmLpTugyDsQbw-28" style="edgeStyle=orthogonalEdgeStyle;rounded=0;orthogonalLoop=1;jettySize=auto;html=1;exitX=0.5;exitY=1;exitDx=0;exitDy=0;entryX=0.5;entryY=0;entryDx=0;entryDy=0;" parent="WIyWlLk6GJQsqaUBKTNV-1" source="2lRlpsGCmLpTugyDsQbw-27" target="2lRlpsGCmLpTugyDsQbw-0" edge="1">
                    <mxGeometry relative="1" as="geometry"/>
                </mxCell>
                <mxCell id="2lRlpsGCmLpTugyDsQbw-27" value="Start" style="ellipse;whiteSpace=wrap;html=1;" parent="WIyWlLk6GJQsqaUBKTNV-1" vertex="1">
                    <mxGeometry x="-690" y="100" width="120" height="80" as="geometry"/>
                </mxCell>
                <mxCell id="2lRlpsGCmLpTugyDsQbw-32" value="AI Race Battery Control&lt;div style=&quot;font-size: 14px;&quot;&gt;Aggressive Starter&lt;/div&gt;" style="text;html=1;align=center;verticalAlign=middle;whiteSpace=wrap;rounded=1;fontStyle=1;fontSize=14;horizontal=1;fillColor=default;" parent="WIyWlLk6GJQsqaUBKTNV-1" vertex="1">
                    <mxGeometry x="890" y="-20" width="200" height="80" as="geometry"/>
                </mxCell>
                <mxCell id="2lRlpsGCmLpTugyDsQbw-60" value="AI Race Battery Control&lt;div style=&quot;font-size: 14px;&quot;&gt;Passive Starter&lt;/div&gt;" style="text;html=1;align=center;verticalAlign=middle;whiteSpace=wrap;rounded=1;fontStyle=1;fontSize=14;horizontal=1;fillColor=default;" parent="WIyWlLk6GJQsqaUBKTNV-1" vertex="1">
                    <mxGeometry x="2818" y="20" width="200" height="90" as="geometry"/>
                </mxCell>
                <mxCell id="13" value="No" style="edgeStyle=none;html=1;exitX=0.5;exitY=1;exitDx=0;exitDy=0;entryX=0.5;entryY=0;entryDx=0;entryDy=0;fontSize=11;" edge="1" parent="WIyWlLk6GJQsqaUBKTNV-1" source="12" target="2lRlpsGCmLpTugyDsQbw-5">
                    <mxGeometry relative="1" as="geometry"/>
                </mxCell>
                <mxCell id="17" value="Yes" style="edgeStyle=none;html=1;fontSize=11;entryX=0;entryY=0.5;entryDx=0;entryDy=0;" edge="1" parent="WIyWlLk6GJQsqaUBKTNV-1" source="12" target="16">
                    <mxGeometry relative="1" as="geometry">
                        <mxPoint x="-490" y="480" as="targetPoint"/>
                    </mxGeometry>
                </mxCell>
                <mxCell id="12" value="&lt;font style=&quot;font-size: 11px;&quot;&gt;Battery&amp;nbsp;&lt;span style=&quot;background-color: initial;&quot;&gt;&amp;lt; 1%&lt;/span&gt;&lt;br&gt;&lt;/font&gt;&lt;div style=&quot;line-height: 100%; font-size: 11px;&quot;&gt;&lt;font style=&quot;font-size: 11px;&quot;&gt;or&lt;/font&gt;&lt;/div&gt;&lt;div style=&quot;line-height: 100%; font-size: 11px;&quot;&gt;&lt;font style=&quot;font-size: 11px;&quot;&gt;Allowance&amp;nbsp;&lt;span style=&quot;background-color: initial;&quot;&gt;&amp;lt; 1%&lt;/span&gt;&lt;/font&gt;&lt;/div&gt;" style="rhombus;whiteSpace=wrap;html=1;spacing=0;" vertex="1" parent="WIyWlLk6GJQsqaUBKTNV-1">
                    <mxGeometry x="-710" y="420" width="160" height="120" as="geometry"/>
                </mxCell>
                <mxCell id="16" value="Set &lt;br&gt;Min" style="whiteSpace=wrap;html=1;spacing=0;" vertex="1" parent="WIyWlLk6GJQsqaUBKTNV-1">
                    <mxGeometry x="-470" y="460" width="80" height="40" as="geometry"/>
                </mxCell>
                <mxCell id="21" value="Yes" style="edgeStyle=orthogonalEdgeStyle;rounded=0;orthogonalLoop=1;jettySize=auto;html=1;" edge="1" parent="WIyWlLk6GJQsqaUBKTNV-1" source="23" target="24">
                    <mxGeometry relative="1" as="geometry"/>
                </mxCell>
                <mxCell id="22" value="No" style="edgeStyle=orthogonalEdgeStyle;rounded=0;orthogonalLoop=1;jettySize=auto;html=1;entryX=0.5;entryY=0;entryDx=0;entryDy=0;verticalAlign=middle;" edge="1" parent="WIyWlLk6GJQsqaUBKTNV-1" source="23" target="46">
                    <mxGeometry relative="1" as="geometry"/>
                </mxCell>
                <mxCell id="23" value="Yellow Flag&lt;div&gt;or&lt;/div&gt;&lt;div&gt;In Pitlane&lt;/div&gt;&lt;div&gt;or&lt;/div&gt;&lt;div&gt;Finished&lt;/div&gt;" style="rhombus;whiteSpace=wrap;html=1;" vertex="1" parent="WIyWlLk6GJQsqaUBKTNV-1">
                    <mxGeometry x="910" y="220" width="160" height="120" as="geometry"/>
                </mxCell>
                <mxCell id="24" value="Set&lt;div&gt;Min&lt;/div&gt;" style="whiteSpace=wrap;html=1;" vertex="1" parent="WIyWlLk6GJQsqaUBKTNV-1">
                    <mxGeometry x="1160" y="260" width="80" height="40" as="geometry"/>
                </mxCell>
                <mxCell id="25" value="No" style="edgeStyle=none;html=1;exitX=0;exitY=0.5;exitDx=0;exitDy=0;entryX=1;entryY=0.5;entryDx=0;entryDy=0;fontSize=11;" edge="1" parent="WIyWlLk6GJQsqaUBKTNV-1" source="27" target="35">
                    <mxGeometry relative="1" as="geometry">
                        <mxPoint x="850" y="680" as="targetPoint"/>
                    </mxGeometry>
                </mxCell>
                <mxCell id="26" value="Yes" style="edgeStyle=none;html=1;exitX=1;exitY=0.5;exitDx=0;exitDy=0;entryX=0;entryY=0.5;entryDx=0;entryDy=0;fontSize=11;" edge="1" parent="WIyWlLk6GJQsqaUBKTNV-1" source="27" target="30">
                    <mxGeometry relative="1" as="geometry"/>
                </mxCell>
                <mxCell id="27" value="Final&amp;nbsp;&lt;span style=&quot;background-color: initial;&quot;&gt;Lap&lt;br&gt;&lt;/span&gt;or&lt;br&gt;Lap &amp;lt;=3" style="rhombus;whiteSpace=wrap;html=1;" vertex="1" parent="WIyWlLk6GJQsqaUBKTNV-1">
                    <mxGeometry x="910" y="620" width="160" height="120" as="geometry"/>
                </mxCell>
                <mxCell id="28" value="Yes" style="edgeStyle=orthogonalEdgeStyle;rounded=0;orthogonalLoop=1;jettySize=auto;html=1;" edge="1" parent="WIyWlLk6GJQsqaUBKTNV-1" source="30" target="31">
                    <mxGeometry relative="1" as="geometry">
                        <mxPoint as="offset"/>
                    </mxGeometry>
                </mxCell>
                <mxCell id="29" value="No" style="edgeStyle=orthogonalEdgeStyle;rounded=0;orthogonalLoop=1;jettySize=auto;html=1;" edge="1" parent="WIyWlLk6GJQsqaUBKTNV-1" source="30" target="32">
                    <mxGeometry relative="1" as="geometry"/>
                </mxCell>
                <mxCell id="30" value="Battery&lt;div&gt;&amp;lt; 10%&lt;/div&gt;&lt;div&gt;or&lt;/div&gt;&lt;div&gt;Lap Allowance&lt;/div&gt;&lt;div&gt;&amp;lt; 10%&lt;/div&gt;" style="rhombus;whiteSpace=wrap;html=1;" vertex="1" parent="WIyWlLk6GJQsqaUBKTNV-1">
                    <mxGeometry x="1160" y="620" width="160" height="120" as="geometry"/>
                </mxCell>
                <mxCell id="31" value="Set&lt;div&gt;Medium&lt;/div&gt;" style="whiteSpace=wrap;html=1;" vertex="1" parent="WIyWlLk6GJQsqaUBKTNV-1">
                    <mxGeometry x="1200" y="820" width="80" height="40" as="geometry"/>
                </mxCell>
                <mxCell id="32" value="Set&lt;div&gt;Max&lt;/div&gt;" style="whiteSpace=wrap;html=1;" vertex="1" parent="WIyWlLk6GJQsqaUBKTNV-1">
                    <mxGeometry x="1400" y="660" width="80" height="40" as="geometry"/>
                </mxCell>
                <mxCell id="33" value="Yes" style="edgeStyle=orthogonalEdgeStyle;rounded=0;orthogonalLoop=1;jettySize=auto;html=1;exitX=0.5;exitY=1;exitDx=0;exitDy=0;" edge="1" parent="WIyWlLk6GJQsqaUBKTNV-1" source="35" target="36">
                    <mxGeometry relative="1" as="geometry">
                        <mxPoint x="750" y="740" as="sourcePoint"/>
                    </mxGeometry>
                </mxCell>
                <mxCell id="34" value="No" style="edgeStyle=orthogonalEdgeStyle;rounded=0;orthogonalLoop=1;jettySize=auto;html=1;" edge="1" parent="WIyWlLk6GJQsqaUBKTNV-1" source="35" target="39">
                    <mxGeometry relative="1" as="geometry"/>
                </mxCell>
                <mxCell id="35" value="Battery&lt;div&gt;&amp;lt; 10%&lt;/div&gt;&lt;div&gt;or&lt;/div&gt;&lt;div&gt;Lap Allowance&amp;nbsp;&lt;/div&gt;&lt;div&gt;&amp;lt; 10%&lt;/div&gt;" style="rhombus;whiteSpace=wrap;html=1;" vertex="1" parent="WIyWlLk6GJQsqaUBKTNV-1">
                    <mxGeometry x="670" y="620" width="160" height="120" as="geometry"/>
                </mxCell>
                <mxCell id="36" value="Set&lt;div&gt;Low&lt;/div&gt;" style="whiteSpace=wrap;html=1;" vertex="1" parent="WIyWlLk6GJQsqaUBKTNV-1">
                    <mxGeometry x="710" y="820" width="80" height="40" as="geometry"/>
                </mxCell>
                <mxCell id="37" value="Yes" style="edgeStyle=orthogonalEdgeStyle;rounded=0;orthogonalLoop=1;jettySize=auto;html=1;" edge="1" parent="WIyWlLk6GJQsqaUBKTNV-1" source="39" target="40">
                    <mxGeometry relative="1" as="geometry"/>
                </mxCell>
                <mxCell id="38" value="No" style="edgeStyle=orthogonalEdgeStyle;rounded=0;orthogonalLoop=1;jettySize=auto;html=1;" edge="1" parent="WIyWlLk6GJQsqaUBKTNV-1" source="39" target="41">
                    <mxGeometry relative="1" as="geometry"/>
                </mxCell>
                <mxCell id="39" value="Battery&lt;div&gt;&amp;lt; 50%&lt;/div&gt;&lt;div&gt;or&lt;/div&gt;&lt;div&gt;Lap Allowance&lt;/div&gt;&lt;div&gt;&amp;lt; 20%&lt;/div&gt;" style="rhombus;whiteSpace=wrap;html=1;" vertex="1" parent="WIyWlLk6GJQsqaUBKTNV-1">
                    <mxGeometry x="430" y="620" width="160" height="120" as="geometry"/>
                </mxCell>
                <mxCell id="40" value="Set&lt;div&gt;Medium&lt;/div&gt;" style="whiteSpace=wrap;html=1;" vertex="1" parent="WIyWlLk6GJQsqaUBKTNV-1">
                    <mxGeometry x="470" y="820" width="80" height="40" as="geometry"/>
                </mxCell>
                <mxCell id="41" value="Set&lt;div&gt;Max&lt;/div&gt;" style="whiteSpace=wrap;html=1;" vertex="1" parent="WIyWlLk6GJQsqaUBKTNV-1">
                    <mxGeometry x="270" y="660" width="80" height="40" as="geometry"/>
                </mxCell>
                <mxCell id="42" style="edgeStyle=orthogonalEdgeStyle;rounded=0;orthogonalLoop=1;jettySize=auto;html=1;exitX=0.5;exitY=1;exitDx=0;exitDy=0;entryX=0.5;entryY=0;entryDx=0;entryDy=0;" edge="1" parent="WIyWlLk6GJQsqaUBKTNV-1" source="43" target="23">
                    <mxGeometry relative="1" as="geometry"/>
                </mxCell>
                <mxCell id="43" value="Start" style="ellipse;whiteSpace=wrap;html=1;" vertex="1" parent="WIyWlLk6GJQsqaUBKTNV-1">
                    <mxGeometry x="930" y="100" width="120" height="80" as="geometry"/>
                </mxCell>
                <mxCell id="44" value="No" style="edgeStyle=none;html=1;exitX=0.5;exitY=1;exitDx=0;exitDy=0;entryX=0.5;entryY=0;entryDx=0;entryDy=0;fontSize=11;" edge="1" parent="WIyWlLk6GJQsqaUBKTNV-1" source="46" target="27">
                    <mxGeometry relative="1" as="geometry"/>
                </mxCell>
                <mxCell id="45" value="Yes" style="edgeStyle=none;html=1;fontSize=11;entryX=0;entryY=0.5;entryDx=0;entryDy=0;" edge="1" parent="WIyWlLk6GJQsqaUBKTNV-1" source="46" target="47">
                    <mxGeometry relative="1" as="geometry">
                        <mxPoint x="1130" y="480" as="targetPoint"/>
                    </mxGeometry>
                </mxCell>
                <mxCell id="46" value="&lt;font style=&quot;font-size: 11px;&quot;&gt;Battery&amp;nbsp;&lt;span style=&quot;background-color: initial;&quot;&gt;&amp;lt; 1%&lt;/span&gt;&lt;br&gt;&lt;/font&gt;&lt;div style=&quot;line-height: 100%; font-size: 11px;&quot;&gt;&lt;font style=&quot;font-size: 11px;&quot;&gt;or&lt;/font&gt;&lt;/div&gt;&lt;div style=&quot;line-height: 100%; font-size: 11px;&quot;&gt;&lt;font style=&quot;font-size: 11px;&quot;&gt;Allowance&amp;nbsp;&lt;span style=&quot;background-color: initial;&quot;&gt;&amp;lt; 1%&lt;/span&gt;&lt;/font&gt;&lt;/div&gt;" style="rhombus;whiteSpace=wrap;html=1;spacing=0;" vertex="1" parent="WIyWlLk6GJQsqaUBKTNV-1">
                    <mxGeometry x="910" y="420" width="160" height="120" as="geometry"/>
                </mxCell>
                <mxCell id="47" value="Set &lt;br&gt;Min" style="whiteSpace=wrap;html=1;spacing=0;" vertex="1" parent="WIyWlLk6GJQsqaUBKTNV-1">
                    <mxGeometry x="1160" y="460" width="80" height="40" as="geometry"/>
                </mxCell>
                <mxCell id="48" value="Yes" style="edgeStyle=orthogonalEdgeStyle;rounded=0;orthogonalLoop=1;jettySize=auto;html=1;" edge="1" parent="WIyWlLk6GJQsqaUBKTNV-1" source="50" target="51">
                    <mxGeometry relative="1" as="geometry"/>
                </mxCell>
                <mxCell id="49" value="No" style="edgeStyle=orthogonalEdgeStyle;rounded=0;orthogonalLoop=1;jettySize=auto;html=1;entryX=0.5;entryY=0;entryDx=0;entryDy=0;verticalAlign=middle;" edge="1" parent="WIyWlLk6GJQsqaUBKTNV-1" source="50" target="73">
                    <mxGeometry relative="1" as="geometry"/>
                </mxCell>
                <mxCell id="50" value="Yellow Flag&lt;div&gt;or&lt;/div&gt;&lt;div&gt;In Pitlane&lt;/div&gt;&lt;div&gt;or&lt;/div&gt;&lt;div&gt;Finished&lt;/div&gt;" style="rhombus;whiteSpace=wrap;html=1;" vertex="1" parent="WIyWlLk6GJQsqaUBKTNV-1">
                    <mxGeometry x="2840" y="270" width="160" height="120" as="geometry"/>
                </mxCell>
                <mxCell id="51" value="Set&lt;div&gt;Min&lt;/div&gt;" style="whiteSpace=wrap;html=1;" vertex="1" parent="WIyWlLk6GJQsqaUBKTNV-1">
                    <mxGeometry x="3080" y="310" width="80" height="40" as="geometry"/>
                </mxCell>
                <mxCell id="52" value="No" style="edgeStyle=none;html=1;exitX=0;exitY=0.5;exitDx=0;exitDy=0;entryX=1;entryY=0.5;entryDx=0;entryDy=0;fontSize=11;" edge="1" parent="WIyWlLk6GJQsqaUBKTNV-1" source="54" target="62">
                    <mxGeometry relative="1" as="geometry">
                        <mxPoint x="2780" y="1060" as="targetPoint"/>
                    </mxGeometry>
                </mxCell>
                <mxCell id="53" value="Yes" style="edgeStyle=none;html=1;exitX=1;exitY=0.5;exitDx=0;exitDy=0;entryX=0;entryY=0.5;entryDx=0;entryDy=0;fontSize=11;" edge="1" parent="WIyWlLk6GJQsqaUBKTNV-1" source="54" target="57">
                    <mxGeometry relative="1" as="geometry"/>
                </mxCell>
                <mxCell id="54" value="On Final&lt;div&gt;Lap?&lt;/div&gt;" style="rhombus;whiteSpace=wrap;html=1;" vertex="1" parent="WIyWlLk6GJQsqaUBKTNV-1">
                    <mxGeometry x="2840" y="1000" width="160" height="120" as="geometry"/>
                </mxCell>
                <mxCell id="55" value="Yes" style="edgeStyle=orthogonalEdgeStyle;rounded=0;orthogonalLoop=1;jettySize=auto;html=1;" edge="1" parent="WIyWlLk6GJQsqaUBKTNV-1" source="57" target="58">
                    <mxGeometry relative="1" as="geometry">
                        <mxPoint as="offset"/>
                    </mxGeometry>
                </mxCell>
                <mxCell id="56" value="No" style="edgeStyle=orthogonalEdgeStyle;rounded=0;orthogonalLoop=1;jettySize=auto;html=1;" edge="1" parent="WIyWlLk6GJQsqaUBKTNV-1" source="57" target="59">
                    <mxGeometry relative="1" as="geometry"/>
                </mxCell>
                <mxCell id="57" value="Battery&lt;div&gt;&amp;lt; 10%&lt;/div&gt;&lt;div&gt;or&lt;/div&gt;&lt;div&gt;Lap Allowance&lt;/div&gt;&lt;div&gt;&amp;lt; 10%&lt;/div&gt;" style="rhombus;whiteSpace=wrap;html=1;" vertex="1" parent="WIyWlLk6GJQsqaUBKTNV-1">
                    <mxGeometry x="3080" y="1000" width="160" height="120" as="geometry"/>
                </mxCell>
                <mxCell id="58" value="Set&lt;div&gt;Medium&lt;/div&gt;" style="whiteSpace=wrap;html=1;" vertex="1" parent="WIyWlLk6GJQsqaUBKTNV-1">
                    <mxGeometry x="3120" y="1200" width="80" height="40" as="geometry"/>
                </mxCell>
                <mxCell id="59" value="Set&lt;div&gt;Max&lt;/div&gt;" style="whiteSpace=wrap;html=1;" vertex="1" parent="WIyWlLk6GJQsqaUBKTNV-1">
                    <mxGeometry x="3320" y="1040" width="80" height="40" as="geometry"/>
                </mxCell>
                <mxCell id="61" value="No" style="edgeStyle=orthogonalEdgeStyle;rounded=0;orthogonalLoop=1;jettySize=auto;html=1;" edge="1" parent="WIyWlLk6GJQsqaUBKTNV-1" source="62" target="66">
                    <mxGeometry relative="1" as="geometry"/>
                </mxCell>
                <mxCell id="89" value="Yes" style="edgeStyle=none;html=1;exitX=0.5;exitY=0;exitDx=0;exitDy=0;entryX=0.5;entryY=1;entryDx=0;entryDy=0;fontSize=11;" edge="1" parent="WIyWlLk6GJQsqaUBKTNV-1" source="62" target="80">
                    <mxGeometry relative="1" as="geometry"/>
                </mxCell>
                <mxCell id="62" value="Battery&lt;div&gt;&amp;lt; 10%&lt;/div&gt;&lt;div&gt;or&lt;/div&gt;&lt;div&gt;Lap Allowance&amp;nbsp;&lt;/div&gt;&lt;div&gt;&amp;lt; 10%&lt;/div&gt;" style="rhombus;whiteSpace=wrap;html=1;" vertex="1" parent="WIyWlLk6GJQsqaUBKTNV-1">
                    <mxGeometry x="2600" y="1000" width="160" height="120" as="geometry"/>
                </mxCell>
                <mxCell id="90" value="Yes" style="edgeStyle=none;html=1;exitX=0.5;exitY=0;exitDx=0;exitDy=0;entryX=0.5;entryY=1;entryDx=0;entryDy=0;fontSize=11;" edge="1" parent="WIyWlLk6GJQsqaUBKTNV-1" source="66" target="84">
                    <mxGeometry relative="1" as="geometry"/>
                </mxCell>
                <mxCell id="94" value="No" style="edgeStyle=none;html=1;exitX=0;exitY=0.5;exitDx=0;exitDy=0;entryX=0.5;entryY=1;entryDx=0;entryDy=0;fontSize=11;" edge="1" parent="WIyWlLk6GJQsqaUBKTNV-1" source="66" target="68">
                    <mxGeometry relative="1" as="geometry"/>
                </mxCell>
                <mxCell id="66" value="Battery&lt;div&gt;&amp;lt; 50%&lt;/div&gt;&lt;div&gt;or&lt;/div&gt;&lt;div&gt;Lap Allowance&lt;/div&gt;&lt;div&gt;&amp;lt; 20%&lt;/div&gt;" style="rhombus;whiteSpace=wrap;html=1;" vertex="1" parent="WIyWlLk6GJQsqaUBKTNV-1">
                    <mxGeometry x="2360" y="1000" width="160" height="120" as="geometry"/>
                </mxCell>
                <mxCell id="68" value="Set&lt;div&gt;Max&lt;/div&gt;" style="whiteSpace=wrap;html=1;" vertex="1" parent="WIyWlLk6GJQsqaUBKTNV-1">
                    <mxGeometry x="2210" y="880" width="80" height="40" as="geometry"/>
                </mxCell>
                <mxCell id="69" style="edgeStyle=orthogonalEdgeStyle;rounded=0;orthogonalLoop=1;jettySize=auto;html=1;exitX=0.5;exitY=1;exitDx=0;exitDy=0;entryX=0.5;entryY=0;entryDx=0;entryDy=0;" edge="1" parent="WIyWlLk6GJQsqaUBKTNV-1" source="70" target="50">
                    <mxGeometry relative="1" as="geometry"/>
                </mxCell>
                <mxCell id="70" value="Start" style="ellipse;whiteSpace=wrap;html=1;" vertex="1" parent="WIyWlLk6GJQsqaUBKTNV-1">
                    <mxGeometry x="2860" y="150" width="120" height="80" as="geometry"/>
                </mxCell>
                <mxCell id="72" value="Yes" style="edgeStyle=none;html=1;fontSize=11;entryX=0;entryY=0.5;entryDx=0;entryDy=0;" edge="1" parent="WIyWlLk6GJQsqaUBKTNV-1" source="73" target="74">
                    <mxGeometry relative="1" as="geometry">
                        <mxPoint x="3060" y="530" as="targetPoint"/>
                    </mxGeometry>
                </mxCell>
                <mxCell id="86" value="No" style="edgeStyle=none;html=1;exitX=0.5;exitY=1;exitDx=0;exitDy=0;entryX=0.5;entryY=0;entryDx=0;entryDy=0;fontSize=11;" edge="1" parent="WIyWlLk6GJQsqaUBKTNV-1" source="73" target="76">
                    <mxGeometry relative="1" as="geometry"/>
                </mxCell>
                <mxCell id="73" value="&lt;font style=&quot;font-size: 11px;&quot;&gt;Battery&amp;nbsp;&lt;span style=&quot;background-color: initial;&quot;&gt;&amp;lt; 1%&lt;/span&gt;&lt;br&gt;&lt;/font&gt;&lt;div style=&quot;line-height: 100%; font-size: 11px;&quot;&gt;&lt;font style=&quot;font-size: 11px;&quot;&gt;or&lt;/font&gt;&lt;/div&gt;&lt;div style=&quot;line-height: 100%; font-size: 11px;&quot;&gt;&lt;font style=&quot;font-size: 11px;&quot;&gt;Allowance&amp;nbsp;&lt;span style=&quot;background-color: initial;&quot;&gt;&amp;lt; 1%&lt;/span&gt;&lt;/font&gt;&lt;/div&gt;" style="rhombus;whiteSpace=wrap;html=1;spacing=0;" vertex="1" parent="WIyWlLk6GJQsqaUBKTNV-1">
                    <mxGeometry x="2840" y="470" width="160" height="120" as="geometry"/>
                </mxCell>
                <mxCell id="74" value="Set &lt;br&gt;Min" style="whiteSpace=wrap;html=1;spacing=0;" vertex="1" parent="WIyWlLk6GJQsqaUBKTNV-1">
                    <mxGeometry x="3080" y="510" width="80" height="40" as="geometry"/>
                </mxCell>
                <mxCell id="75" value="Yes" style="edgeStyle=none;html=1;exitX=0;exitY=0.5;exitDx=0;exitDy=0;entryX=1;entryY=0.5;entryDx=0;entryDy=0;fontSize=11;" edge="1" parent="WIyWlLk6GJQsqaUBKTNV-1" source="76" target="79">
                    <mxGeometry relative="1" as="geometry">
                        <mxPoint x="2780" y="740" as="targetPoint"/>
                    </mxGeometry>
                </mxCell>
                <mxCell id="87" value="No" style="edgeStyle=none;html=1;exitX=0.5;exitY=1;exitDx=0;exitDy=0;entryX=0.5;entryY=0;entryDx=0;entryDy=0;fontSize=11;" edge="1" parent="WIyWlLk6GJQsqaUBKTNV-1" source="76" target="54">
                    <mxGeometry relative="1" as="geometry"/>
                </mxCell>
                <mxCell id="76" value="On First 3 Laps&lt;span style=&quot;background-color: initial;&quot;&gt;?&lt;/span&gt;" style="rhombus;whiteSpace=wrap;html=1;" vertex="1" parent="WIyWlLk6GJQsqaUBKTNV-1">
                    <mxGeometry x="2840" y="680" width="160" height="120" as="geometry"/>
                </mxCell>
                <mxCell id="78" value="No" style="edgeStyle=orthogonalEdgeStyle;rounded=0;orthogonalLoop=1;jettySize=auto;html=1;" edge="1" parent="WIyWlLk6GJQsqaUBKTNV-1" source="79" target="83">
                    <mxGeometry relative="1" as="geometry"/>
                </mxCell>
                <mxCell id="88" value="Yes" style="edgeStyle=none;html=1;exitX=0.5;exitY=1;exitDx=0;exitDy=0;entryX=0.5;entryY=0;entryDx=0;entryDy=0;fontSize=11;" edge="1" parent="WIyWlLk6GJQsqaUBKTNV-1" source="79" target="80">
                    <mxGeometry relative="1" as="geometry"/>
                </mxCell>
                <mxCell id="79" value="Battery&lt;div&gt;&amp;lt; 50%&lt;/div&gt;&lt;div&gt;or&lt;/div&gt;&lt;div&gt;Lap Allowance&amp;nbsp;&lt;/div&gt;&lt;div&gt;&amp;lt; 10%&lt;/div&gt;" style="rhombus;whiteSpace=wrap;html=1;" vertex="1" parent="WIyWlLk6GJQsqaUBKTNV-1">
                    <mxGeometry x="2600" y="680" width="160" height="120" as="geometry"/>
                </mxCell>
                <mxCell id="80" value="Set&lt;div&gt;Low&lt;/div&gt;" style="whiteSpace=wrap;html=1;" vertex="1" parent="WIyWlLk6GJQsqaUBKTNV-1">
                    <mxGeometry x="2640" y="880" width="80" height="40" as="geometry"/>
                </mxCell>
                <mxCell id="81" value="Yes" style="edgeStyle=orthogonalEdgeStyle;rounded=0;orthogonalLoop=1;jettySize=auto;html=1;" edge="1" parent="WIyWlLk6GJQsqaUBKTNV-1" source="83" target="84">
                    <mxGeometry relative="1" as="geometry"/>
                </mxCell>
                <mxCell id="91" value="No" style="edgeStyle=none;html=1;exitX=0;exitY=0.5;exitDx=0;exitDy=0;entryX=0.5;entryY=0;entryDx=0;entryDy=0;fontSize=11;" edge="1" parent="WIyWlLk6GJQsqaUBKTNV-1" source="83" target="68">
                    <mxGeometry relative="1" as="geometry"/>
                </mxCell>
                <mxCell id="83" value="Battery&lt;div&gt;&amp;lt; 75%&lt;/div&gt;&lt;div&gt;or&lt;/div&gt;&lt;div&gt;Lap Allowance&lt;/div&gt;&lt;div&gt;&amp;lt; 25%&lt;/div&gt;" style="rhombus;whiteSpace=wrap;html=1;" vertex="1" parent="WIyWlLk6GJQsqaUBKTNV-1">
                    <mxGeometry x="2360" y="680" width="160" height="120" as="geometry"/>
                </mxCell>
                <mxCell id="84" value="Set&lt;div&gt;Medium&lt;/div&gt;" style="whiteSpace=wrap;html=1;" vertex="1" parent="WIyWlLk6GJQsqaUBKTNV-1">
                    <mxGeometry x="2400" y="880" width="80" height="40" as="geometry"/>
                </mxCell>
            </root>
        </mxGraphModel>
    </diagram>
</mxfile>